<svg 
 xmlns="http://www.w3.org/2000/svg"
 xmlns:xlink="http://www.w3.org/1999/xlink"
 width="23px" height="22px">
<path fill-rule="evenodd"  fill="rgb(219, 218, 218)"
 d="M11.538,21.884 C5.615,21.884 0.809,17.138 0.809,11.288 C0.809,5.438 5.615,0.692 11.538,0.692 C17.461,0.692 22.267,5.438 22.267,11.288 C22.267,17.138 17.461,21.884 11.538,21.884 ZM11.538,2.087 C6.399,2.087 2.221,6.213 2.221,11.288 C2.221,16.363 6.399,20.489 11.538,20.489 C16.677,20.489 20.855,16.363 20.855,11.288 C20.855,6.213 16.677,2.087 11.538,2.087 ZM13.048,16.770 L10.028,16.770 C9.734,16.770 9.518,16.538 9.518,16.266 L9.518,15.220 C9.518,14.930 9.753,14.717 10.028,14.717 L10.440,14.717 L10.440,11.501 L10.028,11.501 C9.734,11.501 9.518,11.269 9.518,10.998 L9.518,9.952 C9.518,9.661 9.753,9.448 10.028,9.448 L12.087,9.448 C12.381,9.448 12.597,9.680 12.597,9.952 L12.597,14.698 L13.048,14.698 C13.323,14.698 13.558,14.930 13.558,15.220 L13.558,16.266 C13.558,16.557 13.323,16.770 13.048,16.770 ZM12.695,7.569 C12.676,7.588 12.676,7.588 12.676,7.608 C12.656,7.685 12.617,7.743 12.577,7.801 C12.538,7.860 12.499,7.918 12.440,7.975 L12.421,7.995 C12.362,8.053 12.303,8.111 12.244,8.150 C12.166,8.208 12.087,8.247 12.009,8.286 L11.989,8.286 C11.930,8.324 11.852,8.344 11.773,8.363 C11.695,8.382 11.597,8.382 11.518,8.382 C11.440,8.382 11.361,8.382 11.263,8.363 C11.165,8.344 11.087,8.324 11.008,8.286 C10.910,8.266 10.832,8.208 10.773,8.169 C10.695,8.111 10.636,8.053 10.577,7.995 C10.538,7.937 10.479,7.879 10.440,7.821 C10.400,7.763 10.361,7.685 10.322,7.608 C10.302,7.530 10.263,7.453 10.243,7.298 C10.224,7.220 10.224,7.123 10.224,7.046 C10.224,6.968 10.224,6.891 10.243,6.794 C10.263,6.716 10.283,6.639 10.322,6.561 C10.361,6.484 10.400,6.407 10.440,6.348 C10.479,6.290 10.538,6.232 10.597,6.174 C10.655,6.116 10.714,6.077 10.793,6.019 C10.852,5.980 10.930,5.941 11.008,5.903 L11.028,5.903 C11.107,5.864 11.185,5.845 11.263,5.826 C11.342,5.806 11.440,5.806 11.518,5.806 C11.597,5.806 11.675,5.806 11.773,5.826 C11.852,5.845 11.930,5.864 12.009,5.903 C12.087,5.941 12.146,5.980 12.225,6.019 C12.303,6.077 12.362,6.116 12.421,6.174 C12.440,6.194 12.440,6.194 12.460,6.213 C12.558,6.310 12.636,6.426 12.695,6.561 C12.734,6.658 12.754,6.736 12.774,6.813 C12.793,6.891 12.793,6.988 12.793,7.065 C12.793,7.143 12.793,7.239 12.774,7.317 C12.754,7.394 12.734,7.491 12.695,7.569 Z"/>
</svg>