<svg 
 xmlns="http://www.w3.org/2000/svg"
 xmlns:xlink="http://www.w3.org/1999/xlink"
 width="26px" height="27px">
<path fill-rule="evenodd"  fill="rgb(209, 209, 208)"
 d="M19.657,26.769 L5.751,26.769 C2.735,26.769 0.281,24.327 0.281,21.326 L0.281,17.363 C0.281,17.296 0.292,17.229 0.309,17.162 L2.949,7.661 C3.005,7.444 3.162,7.270 3.364,7.176 L3.437,7.142 C3.538,7.097 3.645,7.075 3.752,7.075 L8.514,7.075 C8.935,7.075 9.272,7.410 9.272,7.829 C9.272,8.249 8.935,8.583 8.514,8.583 L4.268,8.583 L2.028,16.637 L7.694,16.637 C8.116,16.637 8.452,16.972 8.452,17.391 L8.452,18.073 C8.452,19.073 9.267,19.884 10.272,19.884 L14.900,19.884 C15.905,19.884 16.719,19.073 16.719,18.073 L16.719,17.391 C16.719,16.972 17.056,16.637 17.477,16.637 L23.375,16.637 L21.145,8.600 L16.899,8.600 C16.478,8.600 16.141,8.265 16.141,7.846 C16.141,7.427 16.478,7.092 16.899,7.092 L21.656,7.092 C21.763,7.092 21.869,7.114 21.970,7.158 L22.043,7.192 C22.246,7.287 22.397,7.460 22.459,7.678 L25.099,17.179 C25.121,17.240 25.127,17.307 25.127,17.380 L25.127,21.326 C25.127,24.327 22.673,26.769 19.657,26.769 ZM23.622,18.146 L18.247,18.146 C18.208,19.940 16.725,21.387 14.911,21.387 L10.283,21.387 C8.469,21.387 6.987,19.940 6.947,18.146 L1.797,18.146 L1.797,21.326 C1.797,23.494 3.572,25.260 5.751,25.260 L19.657,25.260 C21.836,25.260 23.610,23.494 23.610,21.326 L23.622,21.326 L23.622,18.146 ZM17.259,10.998 C17.556,11.294 17.556,11.769 17.259,12.066 L13.237,16.067 C13.091,16.218 12.895,16.290 12.704,16.290 C12.513,16.290 12.316,16.212 12.170,16.067 L8.149,12.066 C7.852,11.769 7.852,11.294 8.149,10.998 C8.441,10.702 8.924,10.702 9.222,10.998 L11.946,13.708 L11.946,0.754 C11.946,0.335 12.283,-0.000 12.704,-0.000 C13.125,-0.000 13.462,0.335 13.462,0.754 L13.462,13.708 L16.186,10.998 C16.484,10.702 16.961,10.702 17.259,10.998 Z"/>
</svg>