<svg 
 xmlns="http://www.w3.org/2000/svg"
 xmlns:xlink="http://www.w3.org/1999/xlink"
 width="25px" height="24px">
<path fill-rule="evenodd"  fill="rgb(208, 208, 207)"
 d="M21.722,10.366 L19.967,10.366 L18.622,12.108 C18.534,12.222 18.398,12.288 18.254,12.288 C18.254,12.288 18.254,12.288 18.253,12.288 C18.109,12.288 17.973,12.222 17.886,12.110 L16.530,10.366 L14.773,10.366 C13.495,10.366 12.456,9.340 12.456,8.078 L12.456,2.865 C12.456,1.603 13.495,0.577 14.773,0.577 L21.722,0.577 C22.999,0.577 24.038,1.603 24.038,2.865 L24.038,8.078 C24.038,9.340 22.999,10.366 21.722,10.366 ZM23.112,2.865 C23.112,2.108 22.489,1.492 21.722,1.492 L14.773,1.492 C14.006,1.492 13.383,2.108 13.383,2.865 L13.383,8.078 C13.383,8.835 14.006,9.451 14.773,9.451 L16.758,9.451 C16.902,9.451 17.038,9.517 17.125,9.630 L18.252,11.078 L19.369,9.631 C19.457,9.517 19.593,9.451 19.737,9.451 L21.722,9.451 C22.488,9.451 23.112,8.835 23.112,8.078 L23.112,8.078 L23.112,2.865 ZM18.711,5.513 L18.711,6.226 C18.711,6.478 18.503,6.683 18.247,6.683 C17.991,6.683 17.784,6.478 17.784,6.226 L17.784,5.401 C17.784,5.038 18.036,4.728 18.397,4.648 C18.726,4.576 18.949,4.280 18.925,3.945 C18.902,3.614 18.632,3.346 18.296,3.324 C18.105,3.311 17.923,3.374 17.784,3.503 C17.644,3.631 17.568,3.805 17.568,3.993 C17.568,4.246 17.360,4.451 17.104,4.451 C16.848,4.451 16.641,4.246 16.641,3.993 C16.641,3.555 16.827,3.132 17.151,2.834 C17.480,2.531 17.909,2.381 18.360,2.411 C19.155,2.465 19.795,3.097 19.850,3.882 C19.902,4.633 19.428,5.301 18.711,5.513 ZM18.247,7.396 C18.369,7.396 18.489,7.445 18.575,7.530 C18.661,7.615 18.711,7.733 18.711,7.854 C18.711,7.974 18.661,8.092 18.575,8.177 C18.489,8.262 18.369,8.311 18.247,8.311 C18.125,8.311 18.006,8.262 17.920,8.177 C17.834,8.092 17.784,7.974 17.784,7.854 C17.784,7.733 17.834,7.615 17.920,7.530 C18.006,7.445 18.125,7.396 18.247,7.396 ZM8.884,9.957 L14.536,15.538 L15.003,15.078 L15.003,15.078 C15.003,15.078 15.003,15.078 15.003,15.077 L16.171,13.924 C16.671,13.431 17.335,13.158 18.042,13.158 C18.749,13.158 19.414,13.431 19.914,13.924 L23.263,17.231 C23.763,17.725 24.038,18.382 24.038,19.079 C24.038,19.778 23.763,20.434 23.263,20.927 L22.381,21.799 C20.943,23.218 19.033,24.000 17.000,24.000 C14.968,24.000 13.057,23.218 11.619,21.799 L8.318,18.539 C8.137,18.361 8.137,18.071 8.318,17.892 C8.499,17.714 8.793,17.714 8.974,17.892 L12.275,21.152 C13.537,22.398 15.215,23.085 17.000,23.085 C18.493,23.085 19.910,22.605 21.073,21.718 L15.330,16.048 L14.864,16.509 C14.683,16.688 14.389,16.688 14.208,16.509 L7.901,10.281 C7.814,10.195 7.765,10.079 7.765,9.957 C7.765,9.836 7.814,9.720 7.901,9.634 L9.863,7.696 C10.534,7.034 10.534,5.956 9.863,5.294 L6.517,1.989 C5.846,1.327 4.755,1.327 4.084,1.989 L3.244,2.819 L6.802,6.333 C6.983,6.511 6.983,6.801 6.802,6.980 C6.711,7.069 6.593,7.114 6.474,7.114 C6.356,7.114 6.237,7.069 6.147,6.980 L2.628,3.506 C0.613,6.091 0.804,9.825 3.202,12.193 L6.456,15.407 C6.637,15.586 6.637,15.875 6.456,16.054 C6.275,16.233 5.982,16.233 5.801,16.054 L2.546,12.840 C-0.421,9.910 -0.421,5.144 2.546,2.214 L3.429,1.343 C4.461,0.324 6.140,0.324 7.172,1.343 L10.519,4.647 C11.550,5.666 11.550,7.324 10.519,8.343 L8.884,9.957 ZM21.768,21.110 L22.608,20.280 C22.933,19.960 23.112,19.533 23.112,19.079 C23.112,18.626 22.933,18.199 22.608,17.879 L19.259,14.571 C18.934,14.250 18.502,14.074 18.042,14.074 C17.583,14.074 17.151,14.250 16.826,14.571 L15.986,15.401 L21.768,21.110 ZM7.136,7.767 C7.136,7.647 7.186,7.529 7.272,7.444 C7.358,7.358 7.478,7.310 7.599,7.310 C7.721,7.310 7.841,7.358 7.927,7.444 C8.013,7.529 8.063,7.647 8.063,7.767 C8.063,7.888 8.013,8.006 7.927,8.091 C7.841,8.176 7.721,8.225 7.599,8.225 C7.478,8.225 7.358,8.176 7.272,8.091 C7.186,8.006 7.136,7.888 7.136,7.767 ZM7.465,16.592 C7.586,16.592 7.706,16.641 7.792,16.726 C7.878,16.811 7.928,16.929 7.928,17.049 C7.928,17.170 7.878,17.288 7.792,17.373 C7.706,17.458 7.586,17.507 7.465,17.507 C7.343,17.507 7.223,17.458 7.137,17.373 C7.051,17.288 7.001,17.170 7.001,17.049 C7.001,16.929 7.051,16.811 7.137,16.726 C7.223,16.641 7.343,16.592 7.465,16.592 Z"/>
</svg>