<svg 
 xmlns="http://www.w3.org/2000/svg"
 xmlns:xlink="http://www.w3.org/1999/xlink"
 width="24px" height="23px">
<path fill-rule="evenodd"  fill="rgb(171, 171, 171)"
 d="M23.887,10.048 C23.766,10.222 23.579,10.315 23.389,10.315 C23.263,10.315 23.135,10.274 23.025,10.189 L12.145,1.773 L1.264,10.189 C0.989,10.401 0.603,10.338 0.402,10.048 C0.201,9.758 0.261,9.350 0.535,9.138 L11.781,0.440 C11.997,0.273 12.292,0.273 12.509,0.440 L23.754,9.138 C24.028,9.350 24.088,9.758 23.887,10.048 ZM3.515,10.336 C3.856,10.336 4.132,10.627 4.132,10.987 L4.132,21.351 L9.063,21.351 L9.063,15.694 C9.063,13.899 10.445,12.438 12.145,12.438 C13.844,12.438 15.227,13.899 15.227,15.694 L15.227,21.351 L20.158,21.351 L20.158,10.987 C20.158,10.627 20.434,10.336 20.774,10.336 C21.115,10.336 21.390,10.627 21.390,10.987 L21.390,22.002 C21.390,22.362 21.115,22.653 20.774,22.653 L14.610,22.653 C14.286,22.653 14.021,22.388 13.996,22.053 C13.995,22.037 13.994,22.021 13.994,22.002 L13.994,15.694 C13.994,14.617 13.164,13.740 12.145,13.740 C11.125,13.740 10.295,14.617 10.295,15.694 L10.295,22.002 C10.295,22.021 10.294,22.038 10.293,22.053 C10.268,22.389 10.003,22.653 9.679,22.653 L3.515,22.653 C3.175,22.653 2.899,22.362 2.899,22.002 L2.899,10.987 C2.899,10.627 3.175,10.336 3.515,10.336 Z"/>
</svg>