<svg 
 xmlns="http://www.w3.org/2000/svg"
 xmlns:xlink="http://www.w3.org/1999/xlink"
 width="26px" height="24px">
<path fill-rule="evenodd"  fill="rgb(199, 199, 199)"
 d="M18.187,14.369 L13.556,14.369 C13.202,14.369 12.913,14.089 12.913,13.748 C12.913,13.406 13.202,13.126 13.556,13.126 L18.187,13.126 C18.541,13.126 18.830,13.406 18.830,13.748 C18.830,14.089 18.546,14.369 18.187,14.369 ZM18.187,11.387 L13.556,11.387 C13.202,11.387 12.913,11.108 12.913,10.766 C12.913,10.424 13.202,10.145 13.556,10.145 L18.187,10.145 C18.546,10.145 18.830,10.424 18.830,10.766 C18.830,11.108 18.541,11.387 18.187,11.387 ZM18.830,7.960 C18.830,8.302 18.541,8.582 18.187,8.582 L13.556,8.582 C13.202,8.582 12.913,8.302 12.913,7.960 C12.913,7.619 13.202,7.339 13.556,7.339 L18.187,7.339 C18.546,7.339 18.830,7.619 18.830,7.960 ZM3.808,3.928 L17.843,3.928 C18.197,3.928 18.487,4.207 18.487,4.549 C18.487,4.891 18.197,5.170 17.843,5.170 L3.808,5.170 C3.454,5.170 3.164,4.891 3.164,4.549 C3.164,4.207 3.454,3.928 3.808,3.928 ZM2.949,14.058 L2.949,7.339 C2.949,6.998 3.239,6.718 3.593,6.718 L10.584,6.718 C10.938,6.718 11.228,6.998 11.228,7.339 L11.228,14.058 C11.228,14.400 10.938,14.679 10.584,14.679 L3.593,14.679 C3.239,14.679 2.949,14.400 2.949,14.058 ZM4.237,13.437 L9.940,13.437 L9.940,7.960 L4.237,7.960 L4.237,13.437 ZM17.843,19.773 C18.197,19.773 18.487,20.052 18.487,20.394 C18.487,20.735 18.197,21.015 17.843,21.015 L6.034,21.015 C5.680,21.015 5.391,20.735 5.391,20.394 C5.391,20.052 5.680,19.773 6.034,19.773 L17.843,19.773 ZM3.164,17.210 C3.164,16.869 3.454,16.589 3.808,16.589 L17.843,16.589 C18.197,16.589 18.482,16.869 18.482,17.210 C18.482,17.552 18.192,17.831 17.838,17.831 L3.808,17.831 C3.454,17.831 3.164,17.552 3.164,17.210 ZM20.461,23.769 L4.736,23.769 C2.220,23.769 0.176,21.796 0.176,19.369 L0.176,0.967 C0.176,0.625 0.465,0.346 0.820,0.346 L20.955,0.346 C21.309,0.346 21.599,0.625 21.599,0.967 L21.599,17.583 C21.599,17.925 21.309,18.204 20.955,18.204 C20.601,18.204 20.311,17.925 20.311,17.583 L20.311,1.588 L1.463,1.588 L1.463,19.374 C1.463,21.114 2.928,22.532 4.736,22.532 L20.467,22.532 C22.269,22.532 23.740,21.119 23.740,19.374 L23.740,2.887 C23.740,2.546 24.029,2.267 24.383,2.267 C24.737,2.267 25.027,2.546 25.022,2.887 L25.022,19.369 C25.022,21.796 22.978,23.769 20.461,23.769 Z"/>
</svg>