<svg 
 xmlns="http://www.w3.org/2000/svg"
 xmlns:xlink="http://www.w3.org/1999/xlink"
 width="23px" height="24px">
<path fill-rule="evenodd"  fill="rgb(196, 196, 195)"
 d="M18.659,0.346 L4.466,0.346 C2.152,0.346 0.269,2.134 0.269,4.331 L0.269,23.153 C0.269,23.493 0.560,23.769 0.918,23.769 L18.659,23.769 C19.018,23.769 19.308,23.493 19.308,23.153 L19.308,8.270 C21.315,7.972 22.856,6.319 22.856,4.331 C22.856,2.134 20.973,0.346 18.659,0.346 ZM4.466,1.578 C6.065,1.578 7.365,2.813 7.365,4.331 C7.365,5.849 6.065,7.084 4.466,7.084 C2.868,7.084 1.567,5.849 1.567,4.331 C1.567,2.813 2.868,1.578 4.466,1.578 ZM18.010,22.536 L1.567,22.536 L1.567,7.211 C2.321,7.896 3.343,8.317 4.466,8.317 L18.010,8.317 L18.010,22.536 L18.010,22.536 ZM18.659,7.084 L7.498,7.084 C8.220,6.368 8.663,5.398 8.663,4.331 C8.663,3.265 8.220,2.294 7.498,1.578 L18.659,1.578 C20.258,1.578 21.558,2.813 21.558,4.331 C21.558,5.849 20.258,7.084 18.659,7.084 ZM2.729,4.331 C2.729,3.422 3.509,2.682 4.466,2.682 C4.825,2.682 5.115,2.958 5.115,3.298 C5.115,3.639 4.825,3.914 4.466,3.914 C4.224,3.914 4.027,4.102 4.027,4.331 C4.027,4.561 4.224,4.749 4.466,4.749 C4.825,4.749 5.115,5.024 5.115,5.365 C5.115,5.705 4.825,5.981 4.466,5.981 C3.509,5.981 2.729,5.241 2.729,4.331 Z"/>
</svg>