<svg 
 xmlns="http://www.w3.org/2000/svg"
 xmlns:xlink="http://www.w3.org/1999/xlink"
 width="25px" height="25px">
<path fill-rule="evenodd"  fill="rgb(0, 0, 0)"
 d="M24.745,23.737 L18.739,17.722 C20.350,15.868 21.325,13.448 21.325,10.803 C21.325,4.980 16.596,0.250 10.788,0.250 C4.973,0.250 0.250,4.986 0.250,10.803 C0.250,16.620 4.979,21.356 10.788,21.356 C13.429,21.356 15.846,20.379 17.698,18.766 L23.704,24.780 C23.846,24.923 24.038,24.999 24.224,24.999 C24.410,24.999 24.602,24.928 24.745,24.780 C25.030,24.495 25.030,24.023 24.745,23.737 ZM1.724,10.803 C1.724,5.798 5.790,1.731 10.782,1.731 C15.780,1.731 19.840,5.803 19.840,10.803 C19.840,15.802 15.780,19.879 10.782,19.879 C5.790,19.879 1.724,15.808 1.724,10.803 Z"/>
</svg>