<svg 
 xmlns="http://www.w3.org/2000/svg"
 xmlns:xlink="http://www.w3.org/1999/xlink"
 width="25px" height="23px">
<path fill-rule="evenodd"  fill="#28288e"
 d="M0.438,11.028 L6.153,13.300 L8.365,20.878 C8.507,21.363 9.064,21.542 9.433,21.220 L12.619,18.454 C12.953,18.164 13.428,18.150 13.777,18.420 L19.523,22.863 C19.919,23.169 20.479,22.938 20.578,22.429 L24.787,0.864 C24.895,0.308 24.382,-0.156 23.885,0.049 L0.431,9.686 C-0.147,9.924 -0.142,10.796 0.438,11.028 ZM8.008,12.091 L19.177,4.764 C19.378,4.632 19.585,4.921 19.412,5.092 L10.195,14.218 C9.871,14.539 9.662,14.969 9.603,15.436 L9.288,17.914 C9.247,18.245 8.810,18.278 8.725,17.958 L7.517,13.438 C7.379,12.923 7.580,12.372 8.008,12.091 Z"/>
</svg>