<svg  fill="white" height="512pt" viewBox="0 0 512 512" width="512pt" xmlns="http://www.w3.org/2000/svg">
<path d="m316 45c-17.472656 0-33.554688 6.023438-46.316406 16.074219-6.546875-34.71875-37.085938-61.074219-73.683594-61.074219h-136v45h-60v467h512v-467zm0 30h166v287h-166c-16.867188 0-32.457031 5.601562-45 15.035156v-257.035156c0-24.8125 20.1875-45 45-45zm-45 362c0-24.8125 20.1875-45 45-45h166v30h-166c-16.871094 0-32.457031 5.597656-45 15zm-181-407h106c24.8125 0 45 20.1875 45 45v302.035156c-12.542969-9.433594-28.132812-15.035156-45-15.035156h-106zm-30 45v317h136c24.8125 0 45 20.1875 45 45-12.542969-9.402344-28.128906-15-45-15h-166v-347zm-30 377h166c19.554688 0 36.226562 12.539062 42.421875 30h-208.421875zm243.578125 30c6.195313-17.460938 22.867187-30 42.421875-30h166v30zm0 0"/>
<path d="m452 105h-151v227h151zm-30 197h-91v-167h91zm0 0"/>
<path d="m211 60h-91v121h91zm-30 91h-31v-61h31zm0 0"/>
<path d="m211 211h-91v121h91zm-30 91h-31v-61h31zm0 0"/>
</svg>