<svg 
 xmlns="http://www.w3.org/2000/svg"
 xmlns:xlink="http://www.w3.org/1999/xlink"
 width="200px" height="61px">
<path fill-rule="evenodd"  fill="rgb(11, 18, 116)"
 d="M199.123,24.609 C198.985,25.239 199.007,26.575 199.007,26.575 C199.007,26.575 198.903,28.397 199.007,32.244 C199.111,36.090 193.105,43.989 187.178,44.969 C182.939,45.669 181.270,42.947 180.659,41.337 C178.670,43.217 176.309,44.696 173.958,45.084 C169.856,45.762 168.157,43.231 167.498,41.607 C165.571,43.358 163.323,44.714 161.086,45.084 C157.923,45.607 155.694,43.529 154.301,41.477 C152.343,43.291 150.042,44.705 147.750,45.084 C147.418,45.139 147.107,45.166 146.806,45.181 C146.811,46.296 146.816,47.286 146.819,48.082 C153.558,50.625 163.859,53.518 167.696,52.834 C167.696,52.834 171.749,52.214 173.031,50.174 C173.031,50.174 176.113,48.790 174.654,52.025 C173.196,55.259 167.156,59.057 158.419,58.271 C153.014,57.785 147.868,56.530 144.723,55.641 C142.804,58.243 140.153,59.572 139.401,59.891 C135.038,61.742 127.856,61.317 125.253,58.503 C122.650,55.688 124.441,55.611 124.441,55.611 C124.441,55.611 126.013,57.015 131.399,57.230 C134.487,57.353 136.738,55.208 138.099,53.353 C134.479,52.163 128.880,50.869 125.369,52.719 C119.843,55.630 108.152,66.329 99.277,57.693 C90.402,49.057 97.010,36.735 102.176,34.789 C102.176,34.789 104.664,33.382 108.554,33.632 C111.567,33.826 122.497,33.760 124.108,33.749 C124.218,33.692 124.383,33.647 124.673,33.632 C128.308,33.443 128.268,31.665 128.268,31.665 C128.658,27.235 122.840,26.438 122.840,26.438 C122.840,26.438 112.493,26.684 107.309,26.555 C102.126,26.425 99.088,20.412 99.088,20.412 C98.869,19.165 99.555,18.751 100.362,18.442 C101.022,18.189 101.794,18.764 103.915,19.288 C104.542,19.442 106.383,19.369 106.383,19.369 C106.383,19.369 118.178,19.369 122.029,19.369 C127.840,19.369 133.148,22.494 134.066,28.426 C134.935,34.040 133.906,37.063 133.581,37.753 C133.466,38.227 133.320,38.578 133.139,38.606 C133.139,38.606 131.559,42.161 127.108,42.192 C120.154,42.241 108.670,42.192 108.670,42.192 C108.670,42.192 100.205,42.264 99.857,48.092 C99.857,48.092 99.816,48.992 100.205,49.596 C101.377,51.418 104.773,54.385 111.453,52.603 C120.346,50.231 131.051,46.009 131.051,46.009 C131.051,46.009 131.449,45.742 131.979,45.662 C133.359,45.454 136.265,45.242 139.572,45.781 C139.509,40.069 139.431,31.045 139.517,27.617 C139.647,22.438 145.663,19.403 145.663,19.403 C146.911,19.184 147.325,19.869 147.634,20.676 C147.887,21.335 146.874,22.999 146.823,25.419 C146.809,26.063 146.707,26.691 146.707,26.691 C146.707,26.691 146.741,32.644 146.772,38.546 C147.212,39.904 147.982,39.994 147.982,39.994 C152.415,40.384 152.621,33.863 152.621,33.863 L152.621,28.773 C152.621,28.773 152.586,26.890 152.969,25.650 C153.631,23.507 155.839,19.940 159.463,19.403 C161.857,19.049 164.596,19.184 165.627,19.255 C166.950,19.112 169.100,19.730 169.784,20.098 C171.047,20.777 172.261,22.046 172.915,25.187 C173.178,26.453 172.828,29.141 172.915,32.359 C172.918,32.495 172.912,32.638 172.901,32.784 C172.882,34.319 172.806,36.169 172.799,36.524 C172.715,40.393 174.190,40.226 174.190,40.226 C178.624,40.616 178.597,33.401 178.597,33.401 C178.597,33.401 178.467,32.795 178.597,27.617 C178.727,22.438 184.743,19.403 184.743,19.403 C185.991,19.184 186.405,19.869 186.714,20.676 C186.968,21.335 186.267,23.065 185.903,24.956 C185.781,25.589 185.787,26.691 185.787,26.691 C185.787,26.691 185.683,28.513 185.787,32.359 C185.791,32.506 185.783,32.659 185.770,32.817 C185.850,33.967 185.910,35.971 185.903,36.293 C185.819,40.162 187.410,40.110 187.410,40.110 C191.844,40.500 191.933,33.054 191.933,33.054 C192.113,33.014 191.811,32.652 191.817,27.501 C191.823,22.320 197.963,19.288 197.963,19.288 C199.211,19.068 199.625,19.754 199.934,20.560 C200.187,21.220 199.551,22.654 199.123,24.609 ZM165.690,27.136 C165.486,26.530 165.086,25.995 164.333,25.766 L162.594,25.882 C162.594,25.882 159.579,26.000 159.579,29.930 C159.579,31.160 159.579,34.292 159.579,36.177 C159.495,39.591 161.318,39.763 161.318,39.763 C165.751,40.153 165.841,33.169 165.841,33.169 C165.841,33.169 165.664,30.972 165.690,27.136 ZM193.734,15.469 C191.724,15.469 190.094,13.839 190.094,11.828 C190.094,9.817 191.724,8.187 193.734,8.187 C195.745,8.187 197.375,9.817 197.375,11.828 C197.375,13.839 195.745,15.469 193.734,15.469 ZM183.538,7.636 C183.492,8.032 183.392,8.374 183.237,8.661 C183.081,8.949 182.883,9.194 182.643,9.396 C182.402,9.598 182.127,9.761 181.816,9.887 C181.505,10.013 181.172,10.112 180.816,10.184 C180.460,10.257 180.087,10.306 179.699,10.332 C179.311,10.359 178.920,10.375 178.526,10.378 L178.429,10.378 C178.422,10.378 178.416,10.374 178.409,10.374 C178.333,10.372 178.255,10.370 178.139,10.361 C177.988,10.350 177.825,10.308 177.651,10.235 C177.567,10.708 177.411,11.156 177.182,11.581 C176.952,12.006 176.669,12.404 176.332,12.775 C175.995,13.146 175.610,13.488 175.178,13.801 C174.747,14.113 174.286,14.393 173.798,14.640 L172.758,13.195 C173.027,13.058 173.298,12.908 173.570,12.747 C173.843,12.585 174.103,12.413 174.352,12.232 C174.600,12.051 174.831,11.863 175.045,11.667 C175.259,11.470 175.446,11.268 175.605,11.058 C175.764,10.849 175.889,10.634 175.980,10.415 C176.071,10.196 176.116,9.975 176.116,9.750 C176.116,9.738 176.115,9.721 176.113,9.699 C176.111,9.676 176.110,9.653 176.110,9.630 C176.110,9.607 176.110,9.590 176.108,9.579 C176.106,9.567 176.105,9.569 176.105,9.584 L176.105,9.590 C176.078,9.369 176.040,9.158 175.991,8.956 C175.942,8.754 175.880,8.548 175.806,8.339 C175.733,8.129 175.646,7.909 175.548,7.679 C175.449,7.448 175.340,7.196 175.218,6.922 L176.861,6.202 C177.012,6.659 177.154,7.040 177.287,7.345 C177.419,7.649 177.549,7.893 177.676,8.076 C177.803,8.259 177.931,8.387 178.060,8.462 C178.187,8.535 178.323,8.572 178.466,8.573 C178.602,8.572 178.764,8.570 178.960,8.564 C179.167,8.559 179.388,8.548 179.622,8.533 C179.857,8.518 180.097,8.499 180.341,8.476 C180.586,8.453 180.819,8.423 181.040,8.384 C181.262,8.346 181.463,8.302 181.643,8.250 C181.823,8.199 181.964,8.139 182.066,8.070 C181.683,8.112 181.331,8.129 181.009,8.119 C180.687,8.109 180.399,8.078 180.145,8.025 C179.891,7.971 179.674,7.898 179.495,7.805 C179.315,7.711 179.177,7.604 179.083,7.482 L179.083,7.487 C178.980,7.358 178.885,7.185 178.796,6.968 C178.706,6.751 178.662,6.482 178.662,6.162 C178.662,5.991 178.673,5.831 178.696,5.682 C178.810,5.035 179.037,4.500 179.378,4.077 L179.372,4.082 C179.577,3.808 179.808,3.604 180.066,3.469 C180.323,3.333 180.594,3.266 180.878,3.266 C181.166,3.266 181.450,3.336 181.731,3.477 C182.011,3.618 182.265,3.808 182.492,4.048 C182.655,4.235 182.802,4.446 182.933,4.682 C183.063,4.919 183.175,5.170 183.268,5.437 C183.361,5.703 183.433,5.980 183.484,6.268 C183.535,6.555 183.561,6.844 183.561,7.133 C183.561,7.221 183.559,7.307 183.555,7.393 C183.551,7.479 183.545,7.560 183.538,7.636 ZM181.762,6.077 C181.707,5.901 181.638,5.741 181.555,5.596 C181.471,5.452 181.373,5.332 181.259,5.237 C181.145,5.141 181.015,5.090 180.867,5.082 C180.780,5.079 180.692,5.105 180.603,5.159 C180.514,5.215 180.432,5.288 180.358,5.380 C180.285,5.471 180.224,5.576 180.177,5.694 C180.129,5.812 180.106,5.932 180.106,6.054 C180.106,6.160 180.130,6.256 180.179,6.339 C180.206,6.385 180.260,6.424 180.341,6.456 C180.423,6.489 180.519,6.515 180.631,6.536 C180.743,6.557 180.863,6.574 180.992,6.588 C181.121,6.601 181.244,6.610 181.361,6.613 C181.479,6.617 181.586,6.617 181.683,6.613 C181.779,6.610 181.850,6.604 181.895,6.596 C181.861,6.425 181.817,6.252 181.762,6.077 ZM179.384,1.277 L180.645,0.009 L181.907,1.277 L180.645,2.546 L179.384,1.277 ZM172.951,9.575 C172.743,9.818 172.485,10.009 172.178,10.150 C171.871,10.291 171.517,10.361 171.115,10.361 C170.767,10.361 170.482,10.302 170.260,10.184 C170.039,10.066 169.856,9.904 169.712,9.699 C169.632,9.801 169.547,9.894 169.456,9.976 C169.365,10.057 169.258,10.128 169.135,10.187 C169.012,10.246 168.868,10.291 168.703,10.321 C168.538,10.352 168.342,10.367 168.115,10.367 C167.956,10.367 167.810,10.355 167.677,10.332 C167.545,10.310 167.424,10.281 167.314,10.247 C167.310,10.692 167.243,11.098 167.112,11.464 C166.981,11.829 166.803,12.157 166.578,12.446 C166.352,12.736 166.088,12.987 165.785,13.201 C165.482,13.414 165.156,13.590 164.808,13.729 C164.459,13.868 164.094,13.972 163.714,14.041 C163.333,14.109 162.955,14.143 162.580,14.143 C162.000,14.143 161.464,14.047 160.972,13.855 C160.479,13.662 160.054,13.392 159.696,13.044 C159.338,12.695 159.058,12.276 158.858,11.787 C158.657,11.297 158.557,10.757 158.557,10.167 C158.568,9.824 158.614,9.474 158.696,9.116 C158.777,8.758 158.881,8.407 159.008,8.065 C159.135,7.722 159.277,7.395 159.435,7.085 C159.592,6.774 159.752,6.496 159.915,6.248 L161.154,7.207 C161.017,7.432 160.885,7.670 160.756,7.919 C160.627,8.168 160.513,8.423 160.415,8.684 C160.316,8.945 160.237,9.205 160.176,9.464 C160.115,9.723 160.085,9.973 160.085,10.213 C160.074,10.502 160.132,10.774 160.258,11.030 C160.385,11.285 160.562,11.509 160.787,11.701 C161.012,11.893 161.278,12.045 161.583,12.155 C161.888,12.266 162.212,12.321 162.557,12.321 C162.947,12.321 163.308,12.285 163.640,12.212 C163.971,12.140 164.265,12.040 164.521,11.912 C164.776,11.785 164.991,11.631 165.166,11.450 C165.340,11.269 165.465,11.070 165.541,10.852 L165.535,10.858 C165.630,10.546 165.677,10.224 165.677,9.893 C165.677,9.637 165.641,9.378 165.569,9.116 C165.497,8.853 165.404,8.587 165.291,8.319 C165.177,8.050 165.051,7.780 164.913,7.508 C164.774,7.235 164.639,6.962 164.506,6.688 L166.063,5.808 C166.162,6.033 166.260,6.259 166.359,6.488 C166.458,6.716 166.557,6.934 166.657,7.142 C166.758,7.350 166.861,7.543 166.967,7.722 C167.073,7.901 167.183,8.054 167.297,8.182 C167.410,8.309 167.529,8.405 167.652,8.470 C167.775,8.535 167.907,8.558 168.047,8.539 C168.206,8.516 168.335,8.460 168.433,8.370 C168.532,8.281 168.606,8.169 168.658,8.036 C168.709,7.903 168.741,7.753 168.754,7.587 C168.768,7.422 168.770,7.253 168.763,7.082 C168.755,6.911 168.743,6.741 168.726,6.573 C168.709,6.406 168.695,6.252 168.683,6.111 L170.252,5.899 C170.278,6.017 170.301,6.159 170.320,6.325 C170.339,6.491 170.361,6.665 170.385,6.848 C170.410,7.031 170.441,7.215 170.479,7.402 C170.517,7.588 170.568,7.762 170.632,7.922 C170.697,8.082 170.776,8.221 170.871,8.339 C170.966,8.457 171.085,8.541 171.229,8.590 C171.347,8.590 171.457,8.568 171.559,8.524 C171.661,8.481 171.750,8.417 171.826,8.333 C171.902,8.249 171.961,8.145 172.005,8.021 C172.048,7.898 172.070,7.754 172.070,7.590 C172.070,7.453 172.045,7.294 171.993,7.113 C171.942,6.932 171.873,6.737 171.786,6.528 C171.699,6.318 171.598,6.098 171.482,5.868 C171.366,5.637 171.244,5.404 171.115,5.168 L172.570,4.351 C172.593,4.397 172.634,4.480 172.692,4.600 C172.751,4.720 172.818,4.864 172.894,5.034 C172.970,5.203 173.050,5.393 173.133,5.602 C173.216,5.812 173.292,6.032 173.360,6.262 C173.428,6.493 173.484,6.727 173.528,6.965 C173.571,7.203 173.593,7.436 173.593,7.665 C173.589,8.042 173.534,8.394 173.426,8.722 C173.318,9.049 173.159,9.334 172.951,9.575 ZM169.172,3.517 L168.104,4.591 L167.001,3.488 L168.092,2.386 L169.172,3.471 L170.240,2.397 L171.343,3.500 L170.252,4.602 L169.172,3.517 ZM168.161,1.843 L169.172,0.826 L170.189,1.849 L169.178,2.866 L168.161,1.843 ZM102.703,15.469 C100.692,15.469 99.062,13.839 99.062,11.828 C99.062,9.817 100.692,8.187 102.703,8.187 C104.714,8.187 106.344,9.817 106.344,11.828 C106.344,13.839 104.714,15.469 102.703,15.469 ZM93.663,26.410 C93.663,26.410 93.561,28.215 93.663,32.028 C93.766,35.841 87.825,43.669 81.962,44.639 C78.842,45.156 76.893,43.883 75.745,42.580 C75.744,42.580 75.736,42.580 75.736,42.580 C75.705,42.546 75.679,42.508 75.649,42.472 C74.711,41.363 74.344,40.267 74.344,40.267 C74.344,40.267 74.373,40.213 74.421,40.123 C73.995,38.800 73.932,37.646 73.932,37.646 C74.110,37.607 73.812,23.834 73.817,18.728 C73.823,13.594 79.897,10.588 79.897,10.588 C81.132,10.371 81.541,11.050 81.848,11.850 C82.098,12.503 81.468,13.925 81.045,15.862 C80.908,16.487 80.930,17.811 80.930,17.811 C80.930,17.811 80.835,33.746 80.920,38.319 C81.335,39.847 82.192,39.824 82.192,39.824 C86.577,40.211 86.666,32.831 86.666,32.831 C86.844,32.791 86.545,32.433 86.551,27.327 C86.557,22.193 92.631,19.187 92.631,19.187 C93.865,18.969 94.275,19.649 94.581,20.448 C94.832,21.102 94.202,22.524 93.778,24.461 C93.642,25.085 93.663,26.410 93.663,26.410 ZM70.835,37.531 C70.835,37.531 71.489,44.865 64.296,44.869 C60.049,44.871 53.453,44.960 47.891,39.709 C46.745,38.627 45.524,37.660 44.794,36.041 C44.794,36.041 42.676,44.872 33.093,44.874 C25.197,44.874 19.210,44.869 9.575,44.869 C-0.059,44.869 0.171,36.041 0.171,36.041 C0.171,36.041 0.164,32.160 0.071,29.047 C-0.023,25.934 -0.100,25.138 0.247,23.484 C0.392,22.734 0.520,22.637 0.707,22.295 C1.759,20.372 2.746,20.028 4.302,19.213 C6.875,17.866 7.707,20.694 6.969,21.874 C5.652,23.978 5.804,27.499 5.804,27.499 L5.904,35.123 C5.904,38.586 9.805,38.448 9.805,38.448 C9.805,38.448 27.036,38.771 33.093,38.678 C39.149,38.585 39.976,30.079 39.976,30.079 C39.994,30.074 40.009,30.093 40.020,30.122 C40.051,30.683 40.076,30.265 40.020,30.122 C39.998,29.715 39.973,28.791 39.976,26.869 C39.982,21.734 45.940,18.728 45.940,18.728 C47.174,18.511 47.584,19.190 47.890,19.990 C48.140,20.643 47.286,21.561 47.087,24.002 C47.035,24.639 46.972,25.951 46.972,25.951 C46.972,25.951 46.972,26.457 46.972,27.901 C46.972,31.715 49.966,36.007 53.627,38.448 C55.852,39.932 57.761,40.486 59.299,40.654 C54.905,38.327 51.246,33.750 51.204,30.770 C51.157,27.447 51.160,24.461 51.218,23.085 C51.417,18.369 56.067,18.324 59.019,18.499 C59.019,18.499 59.017,18.502 59.017,18.502 C60.346,18.502 62.497,18.501 64.402,18.503 C65.116,18.503 65.762,18.592 66.349,18.747 C68.086,19.061 70.449,20.092 70.680,23.298 C70.937,25.218 70.852,31.002 70.901,31.801 C70.901,31.801 70.863,32.829 70.835,33.545 L70.835,37.531 ZM61.428,25.034 L59.965,25.071 C58.794,25.153 58.266,26.244 58.225,27.154 C58.189,27.973 58.222,28.753 58.145,29.035 C58.104,30.619 58.125,31.315 58.205,31.573 C58.205,31.573 59.139,36.770 62.575,38.105 C62.575,38.105 64.419,39.013 64.296,36.155 C64.287,35.942 64.306,35.751 64.337,35.569 L64.287,35.586 C64.287,35.586 64.402,31.074 64.402,29.280 C64.402,25.384 61.428,25.034 61.428,25.034 ZM70.836,33.099 C70.842,32.648 70.846,30.658 70.836,33.099 C70.836,33.133 70.835,33.161 70.835,33.174 L70.835,33.404 C70.835,33.289 70.836,33.198 70.836,33.099 ZM60.922,13.969 C58.928,13.969 57.312,12.353 57.312,10.359 C57.312,8.366 58.928,6.750 60.922,6.750 C62.915,6.750 64.531,8.366 64.531,10.359 C64.531,12.353 62.915,13.969 60.922,13.969 ZM26.609,26.687 C24.774,26.687 23.229,25.454 22.750,23.772 C22.273,25.454 20.735,26.687 18.906,26.687 C16.697,26.687 14.906,24.889 14.906,22.672 C14.906,20.454 16.697,18.656 18.906,18.656 C20.735,18.656 22.273,19.889 22.750,21.571 C23.229,19.889 24.774,18.656 26.609,18.656 C28.827,18.656 30.625,20.454 30.625,22.672 C30.625,24.889 28.827,26.687 26.609,26.687 ZM79.109,47.187 C81.103,47.187 82.719,48.810 82.719,50.812 C82.719,52.814 81.103,54.437 79.109,54.437 C77.116,54.437 75.500,52.814 75.500,50.812 C75.500,48.810 77.116,47.187 79.109,47.187 ZM182.016,50.094 C184.026,50.094 185.656,51.717 185.656,53.719 C185.656,55.721 184.026,57.343 182.016,57.343 C180.005,57.343 178.375,55.721 178.375,53.719 C178.375,51.717 180.005,50.094 182.016,50.094 ZM190.250,50.094 C192.269,50.094 193.906,51.717 193.906,53.719 C193.906,55.721 192.269,57.343 190.250,57.343 C188.231,57.343 186.594,55.721 186.594,53.719 C186.594,51.717 188.231,50.094 190.250,50.094 Z"/>
</svg>